<svg width="102" height="101" viewBox="0 0 102 101" fill="none" xmlns="http://www.w3.org/2000/svg">
<path d="M2.73 73.62V71.82C2.73 71.32 2.82 71.03 3 70.95C3.2 70.85 3.55 70.8 4.05 70.8H11.82C12.42 70.8 12.8 70.71 12.96 70.53C13.12 70.35 13.2 69.98 13.2 69.42V40.71C13.2 40.15 13.13 39.78 12.99 39.6C12.85 39.4 12.51 39.3 11.97 39.3H5.07C4.61 39.3 4.27 39.25 4.05 39.15C3.85 39.03 3.75 38.72 3.75 38.22V36.51C3.75 35.89 3.86 35.5 4.08 35.34C4.32 35.18 4.74 35.1 5.34 35.1C7.26 35.06 8.88 34.92 10.2 34.68C11.54 34.44 12.71 33.88 13.71 33C14.71 32.12 15.65 30.75 16.53 28.89C16.73 28.53 16.89 28.23 17.01 27.99C17.13 27.73 17.49 27.6 18.09 27.6H19.44C19.9 27.6 20.22 27.65 20.4 27.75C20.6 27.83 20.7 28.1 20.7 28.56V69.21C20.7 69.93 20.8 70.38 21 70.56C21.2 70.72 21.67 70.8 22.41 70.8H29.07C29.51 70.8 29.85 70.85 30.09 70.95C30.35 71.05 30.48 71.33 30.48 71.79V73.62C30.48 74.18 30.42 74.55 30.3 74.73C30.18 74.91 29.85 75 29.31 75H4.02C3.46 75 3.1 74.92 2.94 74.76C2.8 74.6 2.73 74.22 2.73 73.62ZM35.2111 52.5C35.2111 48.26 35.6611 44.67 36.5611 41.73C37.4611 38.77 38.6711 36.39 40.1911 34.59C41.7311 32.77 43.4611 31.45 45.3811 30.63C47.3211 29.81 49.3311 29.4 51.4111 29.4C53.6311 29.4 55.7111 29.81 57.6511 30.63C59.6111 31.45 61.3311 32.77 62.8111 34.59C64.3111 36.39 65.4811 38.77 66.3211 41.73C67.1811 44.67 67.6111 48.26 67.6111 52.5C67.6111 56.74 67.1311 60.34 66.1711 63.3C65.2111 66.24 63.9411 68.62 62.3611 70.44C60.8011 72.24 59.0611 73.55 57.1411 74.37C55.2411 75.19 53.3311 75.6 51.4111 75.6C49.3311 75.6 47.3211 75.19 45.3811 74.37C43.4611 73.55 41.7311 72.24 40.1911 70.44C38.6711 68.62 37.4611 66.24 36.5611 63.3C35.6611 60.34 35.2111 56.74 35.2111 52.5ZM43.6111 52.5C43.6111 57.22 43.9311 60.98 44.5711 63.78C45.2311 66.56 46.1411 68.56 47.3011 69.78C48.4811 71 49.8511 71.61 51.4111 71.61C53.1311 71.61 54.5711 71 55.7311 69.78C56.8911 68.56 57.7611 66.56 58.3411 63.78C58.9211 60.98 59.2111 57.22 59.2111 52.5C59.2111 47.78 58.9211 44.03 58.3411 41.25C57.7611 38.45 56.8911 36.44 55.7311 35.22C54.5711 34 53.1311 33.39 51.4111 33.39C49.8511 33.39 48.4811 34 47.3011 35.22C46.1411 36.44 45.2311 38.45 44.5711 41.25C43.9311 44.03 43.6111 47.78 43.6111 52.5ZM88.9823 50.73H97.0223C97.3823 50.73 97.6523 50.78 97.8323 50.88C98.0123 50.98 98.1023 51.22 98.1023 51.6V54.24C98.1023 54.54 98.0723 54.76 98.0123 54.9C97.9523 55.04 97.7623 55.11 97.4423 55.11H89.1023C88.6223 55.11 88.3123 55.17 88.1723 55.29C88.0323 55.39 87.9623 55.68 87.9623 56.16V64.65C87.9623 64.91 87.9023 65.08 87.7823 65.16C87.6823 65.22 87.4823 65.25 87.1823 65.25H84.4523C84.1123 65.25 83.8923 65.21 83.7923 65.13C83.6923 65.05 83.6423 64.84 83.6423 64.5V56.34C83.6423 55.82 83.5923 55.49 83.4923 55.35C83.3923 55.19 83.0823 55.11 82.5623 55.11H74.3723C74.0123 55.11 73.7723 55.06 73.6523 54.96C73.5523 54.84 73.5023 54.6 73.5023 54.24V51.48C73.5023 51.14 73.5623 50.93 73.6823 50.85C73.8223 50.77 74.0523 50.73 74.3723 50.73H82.6823C83.0823 50.73 83.3423 50.67 83.4623 50.55C83.5823 50.41 83.6423 50.13 83.6423 49.71V41.64C83.6423 41.26 83.6923 41 83.7923 40.86C83.9123 40.72 84.1723 40.65 84.5723 40.65H87.2423C87.5823 40.65 87.7823 40.72 87.8423 40.86C87.9223 41 87.9623 41.25 87.9623 41.61V49.65C87.9623 50.11 88.0223 50.41 88.1423 50.55C88.2623 50.67 88.5423 50.73 88.9823 50.73Z" fill="url(#paint0_linear_2_22)"/>
<defs>
<linearGradient id="paint0_linear_2_22" x1="51" y1="0" x2="51" y2="101" gradientUnits="userSpaceOnUse">
<stop offset="0.494792" stop-color="#7900C4"/>
<stop offset="1" stop-color="#FDA656" stop-opacity="0.65"/>
</linearGradient>
</defs>
</svg>
