<svg width="32" height="32" viewBox="0 0 32 32" fill="none" xmlns="http://www.w3.org/2000/svg">
<circle cx="16" cy="16" r="16" fill="#2C2F36"/>
<path fill-rule="evenodd" clip-rule="evenodd" d="M7 16.0523C7 20.5279 10.2498 24.2495 14.5 25.0042V18.5024H12.25V16.0021H14.5V14.0014C14.5 11.7508 15.9497 10.5011 18.0002 10.5011C18.6497 10.5011 19.3503 10.6008 19.9998 10.7006V13.0014H18.85C17.7498 13.0014 17.5 13.5513 17.5 14.2519V16.0021H19.9L19.5002 18.5024H17.5V25.0042C21.7502 24.2495 25 20.5286 25 16.0523C25 11.0734 20.95 7 16 7C11.05 7 7 11.0734 7 16.0523Z" fill="#F9F9F9"/>
</svg>
