<svg width="72" height="72" viewBox="0 0 72 72" fill="none" xmlns="http://www.w3.org/2000/svg">
<g clip-path="url(#clip0_8_96)">
<path d="M8 10C5.87827 10 3.84344 10.8429 2.34315 12.3431C0.842855 13.8434 0 15.8783 0 18L0 54C0 56.1217 0.842855 58.1566 2.34315 59.6568C3.84344 61.1571 5.87827 62 8 62H24V10H8Z" fill="#009A49"/>
<path d="M24 10H48V62H24V10Z" fill="#EEEEEE"/>
<path d="M64 10H48V62H64C66.1217 62 68.1566 61.1571 69.6569 59.6568C71.1571 58.1566 72 56.1217 72 54V18C72 15.8783 71.1571 13.8434 69.6569 12.3431C68.1566 10.8429 66.1217 10 64 10Z" fill="#009A49"/>
</g>
<defs>
<clipPath id="clip0_8_96">
<rect width="72" height="72" fill="white"/>
</clipPath>
</defs>
</svg>
