<svg width="72" height="72" viewBox="0 0 72 72" fill="none" xmlns="http://www.w3.org/2000/svg">
<g clip-path="url(#clip0_2_1039)">
<path d="M64 10H8C5.87827 10 3.84344 10.8429 2.34315 12.3431C0.842855 13.8434 0 15.8783 0 18L0 23H72V18C72 15.8783 71.1571 13.8434 69.6569 12.3431C68.1566 10.8429 66.1217 10 64 10Z" fill="#003082"/>
<path d="M0 23H72V36H0V23Z" fill="#EEEEEE"/>
<path d="M0 36H72V49H0V36Z" fill="#289728"/>
<path d="M0 49V54C0 56.1217 0.842855 58.1566 2.34315 59.6569C3.84344 61.1571 5.87827 62 8 62H64C66.1217 62 68.1566 61.1571 69.6569 59.6569C71.1571 58.1566 72 56.1217 72 54V49H0Z" fill="#FFCE00"/>
<path d="M30 10H42V62H30V10Z" fill="#D21034"/>
<path d="M13.7561 15.224L12.3961 11.036L11.0341 15.224H6.63208L10.1941 17.812L8.83408 22L12.3961 19.412L15.9581 22L14.5961 17.812L18.1601 15.224H13.7561Z" fill="#FFCE00"/>
</g>
<defs>
<clipPath id="clip0_2_1039">
<rect width="72" height="72" fill="white"/>
</clipPath>
</defs>
</svg>
