<svg width="72" height="72" viewBox="0 0 72 72" fill="none" xmlns="http://www.w3.org/2000/svg">
<g clip-path="url(#clip0_8_89)">
<path d="M64 10H13L38 27H72V18C72 15.8783 71.1571 13.8434 69.6569 12.3431C68.1566 10.8429 66.1217 10 64 10Z" fill="#DE3830"/>
<path d="M13 62H64C66.1217 62 68.1566 61.1571 69.6569 59.6569C71.1571 58.1566 72 56.1217 72 54V45H38L13 62Z" fill="#002395"/>
<path d="M0 22V50L21 36L0 22Z" fill="#141414"/>
<path d="M0 18V22L21 36L0 50V54L27 36L0 18Z" fill="#FFB611"/>
<path d="M7.082 10.056C5.13273 10.2812 3.33421 11.2149 2.02845 12.6796C0.722685 14.1443 0.000773924 16.0378 0 18L27 36L0 54C0.000773924 55.9622 0.722685 57.8557 2.02845 59.3204C3.33421 60.7851 5.13273 61.7188 7.082 61.944L37 41H72V31H37L7.082 10.056Z" fill="#007A4D"/>
<path d="M13 10H7.99997C7.68797 10 7.38397 10.022 7.08197 10.056L37 31H72V27H38L13 10ZM7.08197 61.944C7.38397 61.978 7.68797 62 7.99997 62H13L38 45H72V41H37L7.08197 61.944Z" fill="#EEEEEE"/>
</g>
<defs>
<clipPath id="clip0_8_89">
<rect width="72" height="72" fill="white"/>
</clipPath>
</defs>
</svg>
