<svg width="72" height="72" viewBox="0 0 72 72" fill="none" xmlns="http://www.w3.org/2000/svg">
<g clip-path="url(#clip0_2_1034)">
<path d="M64 10H8C5.87827 10 3.84344 10.8429 2.34315 12.3431C0.842855 13.8434 0 15.8783 0 18L0 28H72V18C72 15.8783 71.1571 13.8434 69.6569 12.3431C68.1566 10.8429 66.1217 10 64 10Z" fill="#CC212D"/>
<path d="M30.846 44H41.216L36.032 40.232L30.846 44ZM38.02 34.118H44.45L39.248 37.896L41.23 44H72V28H36.032L38.02 34.118ZM32.816 37.896L27.614 34.118H34.044L36.032 28H0V44H30.832L32.816 37.896Z" fill="#FBD116"/>
<path d="M41.234 44.012L41.216 44H30.844L30.826 44.012L30.832 44H0V54C0 56.1217 0.842855 58.1566 2.34315 59.6569C3.84344 61.1571 5.87827 62 8 62H64C66.1217 62 68.1566 61.1571 69.6569 59.6569C71.1571 58.1566 72 56.1217 72 54V44H41.23L41.234 44.012Z" fill="#288541"/>
<path d="M27.6138 34.118L32.8158 37.896L30.8318 44L30.8278 44.012L30.8458 44L36.0318 40.232L41.2158 44L41.2338 44.012L41.2298 44L39.2478 37.896L44.4498 34.118H38.0198L36.0318 28L34.0438 34.118H27.6138Z" fill="black"/>
</g>
<defs>
<clipPath id="clip0_2_1034">
<rect width="72" height="72" fill="white"/>
</clipPath>
</defs>
</svg>
