<svg width="72" height="72" viewBox="0 0 72 72" fill="none" xmlns="http://www.w3.org/2000/svg">
<g clip-path="url(#clip0_2_1030)">
<path d="M64 10H8C5.87827 10 3.84344 10.8429 2.34315 12.3431C0.842855 13.8434 0 15.8783 0 18L0 54C0 56.1217 0.842855 58.1566 2.34315 59.6569C3.84344 61.1571 5.87827 62 8 62H64C66.1217 62 68.1566 61.1571 69.6569 59.6569C71.1571 58.1566 72 56.1217 72 54V18C72 15.8783 71.1571 13.8434 69.6569 12.3431C68.1566 10.8429 66.1217 10 64 10Z" fill="#009B3A"/>
<path d="M71.524 56.722C71.832 55.872 72 54.956 72 54V18C72 17.046 71.832 16.13 71.526 15.282L71.524 15.278L42.832 36L71.524 56.722ZM29.168 36L0.476003 15.278V15.28C0.160244 16.1521 -0.000840654 17.0725 3.29906e-06 18V54C3.29906e-06 54.956 0.168003 55.872 0.476003 56.722L29.168 36Z" fill="#141414"/>
<path d="M65.0701 10.07L36.0001 31.066L6.93012 10.07H6.92812C5.47982 10.2665 4.11287 10.8555 2.97526 11.7731C1.83765 12.6908 0.972726 13.9021 0.474121 15.276L29.1681 36L0.476121 56.722L0.478121 56.728C0.9768 58.0998 1.84085 59.3093 2.97691 60.2258C4.11297 61.1422 5.47786 61.7308 6.92412 61.928H6.93212L36.0001 40.934L65.0681 61.928C66.516 61.732 67.8828 61.1437 69.0204 60.2268C70.158 59.3099 71.0231 58.0993 71.5221 56.726L71.5241 56.72L42.8321 36L71.5241 15.278C71.0262 13.9035 70.1615 12.6915 69.0238 11.7735C67.8861 10.8554 66.5188 10.2663 65.0701 10.07Z" fill="#FFD202"/>
</g>
<defs>
<clipPath id="clip0_2_1030">
<rect width="72" height="72" fill="white"/>
</clipPath>
</defs>
</svg>
