<svg width="72" height="72" viewBox="0 0 72 72" fill="none" xmlns="http://www.w3.org/2000/svg">
<g clip-path="url(#clip0_8_104)">
<path d="M8 10C5.87827 10 3.84344 10.8429 2.34315 12.3431C0.842855 13.8434 0 15.8783 0 18L0 54C0 56.1217 0.842855 58.1566 2.34315 59.6568C3.84344 61.1571 5.87827 62 8 62H20V10H8ZM64 10H52V62H64C66.1217 62 68.1566 61.1571 69.6569 59.6568C71.1571 58.1566 72 56.1217 72 54V18C72 15.8783 71.1571 13.8434 69.6569 12.3431C68.1566 10.8429 66.1217 10 64 10Z" fill="#D52B1E"/>
<path d="M20 10H52V62H20V10Z" fill="#EEEEEE"/>
<path d="M37.23 44.226C39.626 44.504 41.774 44.754 44.168 45.028L43.558 43.024C43.5131 42.8516 43.5193 42.6698 43.5757 42.5008C43.6322 42.3318 43.7365 42.1828 43.876 42.072L50.834 36.404L49.394 35.726C48.76 35.5 48.934 35.142 49.164 34.282L50.226 30.41L46.184 31.264C45.79 31.324 45.528 31.074 45.468 30.834L44.946 29.012L41.75 32.6C41.296 33.176 40.376 33.176 40.662 31.848L42.028 24.58L40.194 25.53C39.68 25.818 39.166 25.866 38.88 25.352L36.35 20.62V20.738V20.62L33.82 25.352C33.532 25.866 33.018 25.818 32.504 25.53L30.672 24.58L32.038 31.848C32.326 33.176 31.404 33.176 30.95 32.6L27.754 29.014L27.234 30.836C27.174 31.076 26.91 31.326 26.516 31.266L22.474 30.412L23.536 34.284C23.762 35.144 23.938 35.502 23.304 35.728L21.864 36.406L28.822 42.074C29.098 42.288 29.238 42.674 29.138 43.026L28.528 45.03L35.468 44.228C35.68 44.228 35.82 44.346 35.818 44.59L35.39 51.998H37.302L36.876 44.59C36.88 44.344 37.018 44.226 37.23 44.226Z" fill="#D52B1E"/>
</g>
<defs>
<clipPath id="clip0_8_104">
<rect width="72" height="72" fill="white"/>
</clipPath>
</defs>
</svg>
