<svg width="72" height="72" viewBox="0 0 72 72" fill="none" xmlns="http://www.w3.org/2000/svg">
<g clip-path="url(#clip0_8_108)">
<path d="M8 62H64C66.1217 62 68.1566 61.1571 69.6569 59.6569C71.1571 58.1566 72 56.1217 72 54V22.5L6.43 61.842C6.938 61.942 7.462 62 8 62ZM64 10H8C5.87827 10 3.84344 10.8429 2.34315 12.3431C0.842855 13.8434 0 15.8783 0 18L0 49.5L65.57 10.158C65.053 10.0545 64.5272 10.0015 64 10ZM19.26 32.04L13.14 27.36L7.02 32.04L9.36 24.48L3.24 19.8H10.8L13.14 12.24L15.48 19.8H23.04L16.92 24.48L19.26 32.04Z" fill="#007FFF"/>
<path d="M15.48 19.8L13.14 12.24L10.8 19.8H3.24L9.36 24.48L7.02 32.04L13.14 27.36L19.26 32.04L16.92 24.48L23.04 19.8H15.48ZM6.43 61.842L72 22.5V19.8L3.746 60.752C4.558 61.264 5.458 61.648 6.43 61.842ZM65.57 10.158L0 49.5V52.2L68.254 11.248C67.4336 10.7233 66.5239 10.3539 65.57 10.158Z" fill="#F7D618"/>
<path d="M68.254 11.248L0 52.2V54C0 56.85 1.502 59.336 3.746 60.752L72 19.8V18C71.9985 16.6494 71.654 15.3213 70.9988 14.1403C70.3436 12.9593 69.3991 11.9641 68.254 11.248Z" fill="#CE1021"/>
</g>
<defs>
<clipPath id="clip0_8_108">
<rect width="72" height="72" fill="white"/>
</clipPath>
</defs>
</svg>
