<svg width="72" height="72" viewBox="0 0 72 72" fill="none" xmlns="http://www.w3.org/2000/svg">
<g clip-path="url(#clip0_8_100)">
<path d="M8 10C5.87827 10 3.84344 10.8429 2.34315 12.3431C0.842855 13.8434 0 15.8783 0 18L0 54C0 56.208 0.896 58.208 2.344 59.656L52 10H8Z" fill="#009543"/>
<path d="M64 10H52L2.34399 59.656C3.0859 60.4 3.96749 60.9901 4.93813 61.3923C5.90876 61.7946 6.94931 62.0011 7.99999 62H20L69.656 12.344C68.9141 11.6 68.0325 11.01 67.0619 10.6077C66.0912 10.2054 65.0507 9.99892 64 10Z" fill="#FBDE4A"/>
<path d="M20 62H64C66.1217 62 68.1566 61.1571 69.6569 59.6568C71.1571 58.1566 72 56.1217 72 54V18C72.0011 16.9493 71.7946 15.9088 71.3923 14.9381C70.9901 13.9675 70.4 13.0859 69.656 12.344L20 62Z" fill="#DC241F"/>
</g>
<defs>
<clipPath id="clip0_8_100">
<rect width="72" height="72" fill="white"/>
</clipPath>
</defs>
</svg>
