<svg width="32" height="32" viewBox="0 0 32 32" fill="none" xmlns="http://www.w3.org/2000/svg">
<circle cx="16" cy="16" r="16" fill="#2C2F36"/>
<path d="M15.9976 13.0001C14.345 13.0001 12.9964 14.3491 12.9964 16.0021C12.9964 17.6551 14.345 19.0041 15.9976 19.0041C17.6502 19.0041 18.9988 17.6551 18.9988 16.0021C18.9988 14.3491 17.6502 13.0001 15.9976 13.0001ZM24.999 16.0021C24.999 14.759 25.0103 13.5271 24.9405 12.2862C24.8707 10.8449 24.5419 9.56575 23.4883 8.51179C22.4323 7.45558 21.1557 7.12904 19.7148 7.05922C18.472 6.98941 17.2404 7.00067 15.9998 7.00067C14.757 7.00067 13.5255 6.98941 12.2849 7.05922C10.8439 7.12904 9.5651 7.45784 8.51141 8.51179C7.45547 9.56801 7.129 10.8449 7.05921 12.2862C6.98941 13.5294 7.00067 14.7612 7.00067 16.0021C7.00067 17.243 6.98941 18.4771 7.05921 19.718C7.129 21.1593 7.45772 22.4385 8.51141 23.4924C9.56736 24.5486 10.8439 24.8752 12.2849 24.945C13.5277 25.0148 14.7593 25.0036 15.9998 25.0036C17.2426 25.0036 18.4742 25.0148 19.7148 24.945C21.1557 24.8752 22.4346 24.5464 23.4883 23.4924C24.5442 22.4362 24.8707 21.1593 24.9405 19.718C25.0125 18.4771 24.999 17.2452 24.999 16.0021ZM15.9976 20.6211C13.4422 20.6211 11.3798 18.5582 11.3798 16.0021C11.3798 13.446 13.4422 11.3832 15.9976 11.3832C18.553 11.3832 20.6154 13.446 20.6154 16.0021C20.6154 18.5582 18.553 20.6211 15.9976 20.6211ZM20.8045 12.2727C20.2078 12.2727 19.726 11.7908 19.726 11.194C19.726 10.5972 20.2078 10.1153 20.8045 10.1153C21.4011 10.1153 21.8829 10.5972 21.8829 11.194C21.8831 11.3357 21.8554 11.4761 21.8012 11.607C21.7471 11.738 21.6677 11.857 21.5675 11.9572C21.4673 12.0574 21.3483 12.1368 21.2174 12.191C21.0865 12.2451 20.9462 12.2729 20.8045 12.2727Z" fill="#F9F9F9"/>
</svg>
