<svg width="88" height="88" viewBox="0 0 88 88" fill="none" xmlns="http://www.w3.org/2000/svg">
<path d="M83.0954 23.8192C79.8077 25.2904 76.648 27.2388 73.678 29.5598C75.8698 34.0577 77.006 38.9965 77 44.0001C77 62.2257 62.2256 77.0001 44 77.0001C25.7744 77.0001 11 62.2257 11 44.0001C11 25.7744 25.7744 11.0001 44 11.0001C49.2552 11.0001 54.2204 12.2334 58.63 14.4197C61.7425 11.8383 65.064 9.5199 68.5602 7.4883C61.3055 2.59457 52.751 -0.0136235 44 5.35157e-05C19.6996 5.35157e-05 0 19.6997 0 44.0001C0 68.3004 19.6996 88.0001 44 88.0001C68.3004 88.0001 88 68.3004 88 44.0001C88.0064 36.9772 86.3242 30.0558 83.0954 23.8192Z" fill="#0DBE3C"/>
<path d="M40.5625 49.1164C36.5984 44.3136 31.7886 40.3907 25.8624 37.3478C25.1088 36.9483 24.2704 36.7357 23.4176 36.7277C18.7 36.7277 15.5815 43.6467 20.658 46.2537C28.8324 50.4502 34.0037 56.1702 38.1383 64.3226C38.9881 66.0001 40.8045 66.8141 42.6222 66.8141C44.8937 66.8141 47.1693 65.5422 47.564 63.0919C50.6756 43.7484 65.0595 24.3994 83.8365 17.5753C89.4066 15.5499 87.8102 7.29443 82.8836 7.29443C82.3281 7.29443 81.73 7.39893 81.0947 7.62993C62.722 14.3056 47.3082 30.5292 40.5625 49.1164Z" fill="#0DBE3C"/>
</svg>
