<svg width="32" height="32" viewBox="0 0 32 32" fill="none" xmlns="http://www.w3.org/2000/svg">
<circle cx="16" cy="16" r="16" fill="#2C2F36"/>
<path d="M24.9657 10.7427C24.292 11.0389 23.5784 11.2346 22.8479 11.3233C23.618 10.861 24.1945 10.1352 24.4707 9.28041C23.7423 9.70295 22.9495 10.0031 22.1239 10.1688C21.5688 9.57549 20.8334 9.18202 20.0318 9.04945C19.2302 8.91688 18.4073 9.05262 17.6908 9.4356C16.9742 9.81859 16.404 10.4274 16.0687 11.1676C15.7334 11.9078 15.6517 12.738 15.8363 13.5294C12.769 13.3859 10.0499 11.9118 8.23131 9.68494C7.90027 10.2481 7.72713 10.8901 7.73013 11.5433C7.72967 12.1506 7.87916 12.7486 8.1653 13.2842C8.45144 13.8198 8.86538 14.2765 9.37037 14.6136C8.78516 14.5959 8.2127 14.4383 7.70087 14.1539V14.1984C7.7007 15.0508 7.99518 15.877 8.53442 16.5371C9.07366 17.1971 9.82447 17.6504 10.6596 17.82C10.3433 17.9046 10.0173 17.9479 9.68988 17.9489C9.45306 17.9489 9.22694 17.9258 9.00138 17.8842C9.23905 18.6177 9.69944 19.2588 10.3185 19.7184C10.9375 20.1779 11.6844 20.433 12.4551 20.4481C11.1492 21.471 9.53788 22.0259 7.87919 22.024C7.5854 22.0252 7.2918 22.0086 7 21.9745C8.69205 23.0589 10.6598 23.6346 12.6694 23.6331C19.4571 23.6331 23.1663 18.0096 23.1663 13.1395C23.1663 12.9842 23.1663 12.8261 23.1544 12.6674C23.88 12.1473 24.5053 11.5 25 10.7568L24.9657 10.7427Z" fill="#F9F9F9"/>
</svg>
