<svg width="32" height="32" viewBox="0 0 32 32" fill="none" xmlns="http://www.w3.org/2000/svg">
<circle cx="16" cy="16" r="16" fill="#2C2F36"/>
<path d="M24.1767 11.8776C23.9805 11.1385 23.4022 10.5565 22.6679 10.3589C21.3369 10 16 10 16 10C16 10 10.6631 10 9.33218 10.3589C8.59789 10.5565 8.01958 11.1385 7.8233 11.8776C7.46667 13.2172 7.46667 16.0121 7.46667 16.0121C7.46667 16.0121 7.46667 18.8071 7.8233 20.1467C8.01958 20.8857 8.59789 21.4435 9.33218 21.6411C10.6631 22 16 22 16 22C16 22 21.3369 22 22.6679 21.6411C23.4022 21.4435 23.9805 20.8857 24.1767 20.1467C24.5334 18.8071 24.5334 16.0121 24.5334 16.0121C24.5334 16.0121 24.5334 13.2172 24.1767 11.8776ZM14.2546 18.5497V13.4745L18.7151 16.0122L14.2546 18.5497Z" fill="#F9F9F9"/>
</svg>
